/* XPM */
static const char *vsi[] = {
/* columns rows colors chars-per-pixel */
"32 32 4 1 ",
"  c black",
". c yellow",
"X c white",
"o c None",
/* pixels */
"...............................o",
"...............................o",
"...............................o",
"...                         ...o",
"... ..... ..... ..... ..... ...o",
"... ..... ..... ..... ..... ...o",
"... ..... ..... ..... ..... ...o",
"... ..... ....   ...   ...   ..o",
"... ..... ...     .     .     .o",
"...                           .o",
"... ..... ...     .     .     .o",
"... ..... ....   ...   ...   ..o",
"... ..... ..... ..... ..... ...o",
"... ....   .... ....XXX.... ...o",
"... ...     ... ...XXXXX... ...o",
"...                XXXXX    ...o",
"... ...     ... ...XXXXX... ...o",
"... ....   .... ....XXX.... ...o",
"... ..... ..... ..... ..... ...o",
"... ....XXX...XXX.... ..... ...o",
"... ...XXXXX.XXXXX... ..... ...o",
"...    XXXXX XXXXX          ...o",
"... ...XXXXX.XXXXX... ..... ...o",
"... ....XXX...XXX.... ..... ...o",
"... ..... ..... ..... ..... ...o",
"... ..... ..... ..... ..... ...o",
"... ..... ..... ..... ..... ...o",
"...                         ...o",
"...............................o",
"...............................o",
"...............................o",
"oooooooooooooooooooooooooooooooo"
};
